<?xml version="1.0" encoding="UTF-8" standalone="no"?>
<svg
   xmlns:dc="http://purl.org/dc/elements/1.1/"
   xmlns:cc="http://creativecommons.org/ns#"
   xmlns:rdf="http://www.w3.org/1999/02/22-rdf-syntax-ns#"
   xmlns:svg="http://www.w3.org/2000/svg"
   xmlns="http://www.w3.org/2000/svg"
   xmlns:sodipodi="http://sodipodi.sourceforge.net/DTD/sodipodi-0.dtd"
   xmlns:inkscape="http://www.inkscape.org/namespaces/inkscape"
   width="576"
   height="576"
   viewBox="0 0 152.39999 152.39999"
   version="1.1"
   id="svg921"
   sodipodi:docname="snet.svg"
   inkscape:version="1.0.1 (3bc2e813f5, 2020-09-07)"
   inkscape:export-filename="/home/rtn/Documents/10 gimp hints/snet512_512.png"
   inkscape:export-xdpi="96"
   inkscape:export-ydpi="96">
  <defs
     id="defs915">
    <filter
       style="color-interpolation-filters:sRGB"
       inkscape:label="Drop Shadow"
       id="filter1895">
      <feFlood
         flood-opacity="0.498039"
         flood-color="rgb(0,0,0)"
         result="flood"
         id="feFlood1885" />
      <feComposite
         in="flood"
         in2="SourceGraphic"
         operator="in"
         result="composite1"
         id="feComposite1887" />
      <feGaussianBlur
         in="composite1"
         stdDeviation="0.5"
         result="blur"
         id="feGaussianBlur1889" />
      <feOffset
         dx="1.4"
         dy="0.4"
         result="offset"
         id="feOffset1891" />
      <feComposite
         in="SourceGraphic"
         in2="offset"
         operator="over"
         result="composite2"
         id="feComposite1893" />
    </filter>
    <filter
       style="color-interpolation-filters:sRGB"
       inkscape:label="Drop Shadow"
       id="filter1907">
      <feFlood
         flood-opacity="0.498039"
         flood-color="rgb(0,0,0)"
         result="flood"
         id="feFlood1897" />
      <feComposite
         in="flood"
         in2="SourceGraphic"
         operator="in"
         result="composite1"
         id="feComposite1899" />
      <feGaussianBlur
         in="composite1"
         stdDeviation="0.5"
         result="blur"
         id="feGaussianBlur1901" />
      <feOffset
         dx="1.4"
         dy="0.4"
         result="offset"
         id="feOffset1903" />
      <feComposite
         in="SourceGraphic"
         in2="offset"
         operator="over"
         result="composite2"
         id="feComposite1905" />
    </filter>
    <filter
       style="color-interpolation-filters:sRGB;"
       inkscape:label="Drop Shadow"
       id="filter2656">
      <feFlood
         flood-opacity="0.498039"
         flood-color="rgb(0,0,0)"
         result="flood"
         id="feFlood2646" />
      <feComposite
         in="flood"
         in2="SourceGraphic"
         operator="in"
         result="composite1"
         id="feComposite2648" />
      <feGaussianBlur
         in="composite1"
         stdDeviation="1.2"
         result="blur"
         id="feGaussianBlur2650" />
      <feOffset
         dx="-3.5"
         dy="6.38378e-16"
         result="offset"
         id="feOffset2652" />
      <feComposite
         in="SourceGraphic"
         in2="offset"
         operator="over"
         result="fbSourceGraphic"
         id="feComposite2654" />
      <feColorMatrix
         result="fbSourceGraphicAlpha"
         in="fbSourceGraphic"
         values="0 0 0 -1 0 0 0 0 -1 0 0 0 0 -1 0 0 0 0 1 0"
         id="feColorMatrix2670" />
      <feFlood
         id="feFlood2672"
         flood-opacity="0.498039"
         flood-color="rgb(0,0,0)"
         result="flood"
         in="fbSourceGraphic" />
      <feComposite
         in2="fbSourceGraphic"
         id="feComposite2674"
         in="flood"
         operator="in"
         result="composite1" />
      <feGaussianBlur
         id="feGaussianBlur2676"
         in="composite1"
         stdDeviation="1.2"
         result="blur" />
      <feOffset
         id="feOffset2678"
         dx="-3.5"
         dy="6.38378e-16"
         result="offset" />
      <feComposite
         in2="offset"
         id="feComposite2680"
         in="fbSourceGraphic"
         operator="over"
         result="composite2" />
    </filter>
    <filter
       style="color-interpolation-filters:sRGB;"
       inkscape:label="Drop Shadow"
       id="filter2668">
      <feFlood
         flood-opacity="0.498039"
         flood-color="rgb(0,0,0)"
         result="flood"
         id="feFlood2658" />
      <feComposite
         in="flood"
         in2="SourceGraphic"
         operator="in"
         result="composite1"
         id="feComposite2660" />
      <feGaussianBlur
         in="composite1"
         stdDeviation="1.2"
         result="blur"
         id="feGaussianBlur2662" />
      <feOffset
         dx="-3.5"
         dy="6.38378e-16"
         result="offset"
         id="feOffset2664" />
      <feComposite
         in="SourceGraphic"
         in2="offset"
         operator="over"
         result="fbSourceGraphic"
         id="feComposite2666" />
      <feColorMatrix
         result="fbSourceGraphicAlpha"
         in="fbSourceGraphic"
         values="0 0 0 -1 0 0 0 0 -1 0 0 0 0 -1 0 0 0 0 1 0"
         id="feColorMatrix2682" />
      <feFlood
         id="feFlood2684"
         flood-opacity="0.498039"
         flood-color="rgb(0,0,0)"
         result="flood"
         in="fbSourceGraphic" />
      <feComposite
         in2="fbSourceGraphic"
         id="feComposite2686"
         in="flood"
         operator="in"
         result="composite1" />
      <feGaussianBlur
         id="feGaussianBlur2688"
         in="composite1"
         stdDeviation="1.2"
         result="blur" />
      <feOffset
         id="feOffset2690"
         dx="-3.5"
         dy="6.38378e-16"
         result="offset" />
      <feComposite
         in2="offset"
         id="feComposite2692"
         in="fbSourceGraphic"
         operator="over"
         result="composite2" />
    </filter>
    <filter
       style="color-interpolation-filters:sRGB;"
       inkscape:label="Drop Shadow"
       id="filter3064">
      <feFlood
         flood-opacity="0.498039"
         flood-color="rgb(0,0,0)"
         result="flood"
         id="feFlood3054" />
      <feComposite
         in="flood"
         in2="SourceGraphic"
         operator="in"
         result="composite1"
         id="feComposite3056" />
      <feGaussianBlur
         in="composite1"
         stdDeviation="1.3"
         result="blur"
         id="feGaussianBlur3058" />
      <feOffset
         dx="3.40242"
         dy="6.38378e-16"
         result="offset"
         id="feOffset3060" />
      <feComposite
         in="SourceGraphic"
         in2="offset"
         operator="over"
         result="composite2"
         id="feComposite3062" />
    </filter>
    <filter
       style="color-interpolation-filters:sRGB;"
       inkscape:label="Drop Shadow"
       id="filter3076">
      <feFlood
         flood-opacity="0.498039"
         flood-color="rgb(0,0,0)"
         result="flood"
         id="feFlood3066" />
      <feComposite
         in="flood"
         in2="SourceGraphic"
         operator="in"
         result="composite1"
         id="feComposite3068" />
      <feGaussianBlur
         in="composite1"
         stdDeviation="1.3"
         result="blur"
         id="feGaussianBlur3070" />
      <feOffset
         dx="3.40242"
         dy="6.38378e-16"
         result="offset"
         id="feOffset3072" />
      <feComposite
         in="SourceGraphic"
         in2="offset"
         operator="over"
         result="composite2"
         id="feComposite3074" />
    </filter>
  </defs>
  <sodipodi:namedview
     id="base"
     pagecolor="#ffffff"
     bordercolor="#666666"
     borderopacity="1.0"
     inkscape:pageopacity="0.0"
     inkscape:pageshadow="2"
     inkscape:zoom="1.0804381"
     inkscape:cx="377.34564"
     inkscape:cy="304.59849"
     inkscape:document-units="px"
     inkscape:current-layer="layer1"
     showgrid="false"
     units="px"
     inkscape:window-width="1528"
     inkscape:window-height="836"
     inkscape:window-x="72"
     inkscape:window-y="27"
     inkscape:window-maximized="1"
     inkscape:showpageshadow="true"
     showguides="true"
     inkscape:lockguides="false"
     inkscape:guide-bbox="true"
     inkscape:pagecheckerboard="true"
     inkscape:snap-nodes="true"
     inkscape:object-nodes="false"
     inkscape:document-rotation="0">
    <sodipodi:guide
       position="-15.182883,125.871"
       orientation="1,0"
       id="guide834"
       inkscape:locked="false" />
  </sodipodi:namedview>
  <metadata
     id="metadata918">
    <rdf:RDF>
      <cc:Work
         rdf:about="">
        <dc:format>image/svg+xml</dc:format>
        <dc:type
           rdf:resource="http://purl.org/dc/dcmitype/StillImage" />
        <dc:title></dc:title>
      </cc:Work>
    </rdf:RDF>
  </metadata>
  <g
     inkscape:groupmode="layer"
     id="layer2"
     inkscape:label="back"
     style="display:inline;opacity:0"
     transform="translate(0,16.933332)">
    <rect
       style="display:inline;opacity:1;fill:#ffffff;fill-opacity:1;stroke-width:1.54237;stroke-miterlimit:4;stroke-dasharray:none;"
       id="rect842"
       width="152.39999"
       height="152.39999"
       x="-2.8421709e-14"
       y="-16.933334" />
  </g>
  <g
     inkscape:label="snetsun"
     inkscape:groupmode="layer"
     id="layer1"
     transform="translate(0,-144.60003)"
     style="display:inline">
    <path
       inkscape:connector-curvature="0"
       style="fill:#000000;fill-opacity:1;fill-rule:evenodd;stroke:none;stroke-width:3.7536;filter:url(#filter3076)"
       d="m 75.052681,198.57091 c 12.91765,0.0426 23.37199,10.54235 23.32801,23.45996 -0.0435,12.91765 -10.54232,23.3573 -23.45999,23.32804 -12.903,-0.0426 -23.35733,-10.54232 -23.32802,-23.46007 0.0436,-12.91753 10.54232,-23.3573 23.46,-23.32793 z m 0,0"
       id="path4075" />
    <path
       inkscape:connector-curvature="0"
       style="fill:#000000;fill-opacity:1;fill-rule:nonzero;stroke:none;stroke-width:3.7536;filter:url(#filter3064)"
       d="m 49.862507,200.05181 c -0.86514,0.98207 -2.37531,1.08496 -3.3577,0.22024 -0.99698,-0.86506 -1.0997,-2.37531 -0.23461,-3.37239 3.62165,-4.13484 8.04969,-7.40456 12.94698,-9.63323 4.89729,-2.22868 10.2784,-3.41634 15.77686,-3.41634 5.49842,0 10.87953,1.18766 15.79151,3.41634 4.8826,2.22867 9.310683,5.49839 12.946973,9.6626 0.85047,0.98207 0.74781,2.49255 -0.2346,3.3577 -0.9824,0.87995 -2.50729,0.77673 -3.35776,-0.22025 -3.167093,-3.62167 -7.037993,-6.4809 -11.348733,-8.44559 -4.28147,-1.95012 -8.98811,-2.99115 -13.7974,-2.99115 -4.82397,0 -9.51597,1.04061 -13.79744,2.99115 -4.2961,1.95012 -8.167,4.80922 -11.3341,8.43092 z m 4.692,-17.19913 c -1.04103,0.80652 -2.5366,0.61607 -3.34303,-0.42559 -0.80641,-1.04061 -0.61585,-2.53662 0.42518,-3.34303 3.34303,-2.59522 7.0673,-4.58941 11.0262,-5.95304 3.92952,-1.34895 8.10836,-2.05269 12.33116,-2.05269 4.2228,0 8.38693,0.70331 12.34581,2.05269 3.9442,1.34896 7.6685,3.35782 10.99688,5.95304 1.05572,0.80653 1.24631,2.30199 0.43985,3.34303 -0.80641,1.0406 -2.302,1.23158 -3.35769,0.42559 -2.90319,-2.25804 -6.17291,-4.00292 -9.61859,-5.19045 -3.4457,-1.17308 -7.09663,-1.78893 -10.80624,-1.78893 -3.70964,0 -7.36058,0.61607 -10.80627,1.78893 -3.44569,1.18753 -6.71541,2.93241 -9.63326,5.19045 z m 4.67736,-15.80621 c -1.15836,0.61607 -2.60995,0.17662 -3.22577,-0.98208 -0.61585,-1.15829 -0.17609,-2.60991 0.99709,-3.22567 2.75652,-1.49557 5.68902,-2.6246 8.70951,-3.37237 3.03511,-0.76291 6.14358,-1.1584 9.28136,-1.1584 3.12311,0 6.24621,0.39581 9.2667,1.1584 3.0058,0.74799 5.92362,1.8768 8.70952,3.3577 1.1583,0.61606 1.5982,2.06737 0.98238,3.22577 -0.63051,1.17296 -2.0674,1.59813 -3.22575,0.98207 -2.40463,-1.27564 -4.97061,-2.27262 -7.6245,-2.93251 -2.63923,-0.65969 -5.36648,-0.99699 -8.10833,-0.99699 -2.75657,0 -5.48379,0.3373 -8.12306,0.99699 -2.6539,0.67458 -5.2345,1.65687 -7.63912,2.9472 z m 47.286503,44.11945 c -0.41049,-1.24625 0.24921,-2.6099 1.49559,-3.03508 1.26099,-0.42558 2.62458,0.24899 3.03513,1.49557 1.78884,5.20516 2.38998,10.6596 1.86215,16.02606 -0.51316,5.35186 -2.17006,10.61565 -4.91196,15.38104 v -0.012 c -2.7712,4.77997 -6.49545,8.84141 -10.864903,11.96451 -4.38409,3.13787 -9.44262,5.33719 -14.82377,6.3929 -1.30494,0.24897 -2.56592,-0.58628 -2.81521,-1.8915 -0.24919,-1.29022 0.58648,-2.5513 1.89148,-2.80047 4.73599,-0.92357 9.14939,-2.85922 12.9763,-5.58651 3.82692,-2.74184 7.096673,-6.29011 9.486653,-10.45433 v -0.012 c 2.41931,-4.16409 3.85622,-8.75339 4.32542,-13.4308 0.45455,-4.67728 -0.0882,-9.47193 -1.65688,-14.03195 z m 12.55111,12.65377 c -0.17601,-1.30501 0.74778,-2.50734 2.05277,-2.68322 1.30492,-0.17553 2.50727,0.748 2.68322,2.05271 0.57179,4.19347 0.43987,8.41633 -0.35177,12.49244 -0.80642,4.0908 -2.28733,8.06435 -4.39871,11.72999 -2.12608,3.66564 -4.80932,6.92075 -7.94708,9.66261 -3.15242,2.74187 -6.75941,4.97054 -10.65963,6.56878 -1.231663,0.49903 -2.624583,-0.0852 -3.123133,-1.31957 -0.49849,-1.21703 0.0882,-2.60993 1.31964,-3.10853 3.431023,-1.39287 6.568813,-3.34301 9.310703,-5.733 2.75653,-2.40465 5.11718,-5.26387 6.96463,-8.46026 1.8475,-3.19639 3.12316,-6.67147 3.84159,-10.24911 0.68915,-3.59232 0.82109,-7.28719 0.30782,-10.95284 z m 11.34878,11.97929 c 0.0585,-1.31969 1.15833,-2.36072 2.46329,-2.31667 1.31962,0.0426 2.34601,1.1436 2.3167,2.46329 -0.10209,3.15234 -0.58648,6.26085 -1.43694,9.23733 -0.85047,2.99115 -2.08207,5.87964 -3.65096,8.6069 -1.5689,2.71247 -3.46037,5.21981 -5.63041,7.46319 -2.17006,2.24336 -4.604,4.20818 -7.25791,5.86506 -1.12905,0.68948 -2.60996,0.35218 -3.29908,-0.77675 -0.70385,-1.11434 -0.35175,-2.59523 0.77706,-3.28437 2.33133,-1.45163 4.45738,-3.18184 6.34886,-5.13183 1.89146,-1.95014 3.54834,-4.14955 4.92661,-6.52485 1.3636,-2.36074 2.43394,-4.89734 3.18174,-7.52194 0.76246,-2.63917 1.18768,-5.36644 1.26099,-8.07893 z m -61.846383,18.87057 c 1.2903,0.26388 2.12603,1.51027 1.89143,2.81517 -0.26388,1.29032 -1.5249,2.14078 -2.8152,1.87682 -5.39579,-1.0555 -10.43969,-3.25503 -14.82375,-6.3928 -4.36945,-3.1232 -8.09369,-7.18464 -10.83558,-11.94994 -2.75656,-4.76539 -4.4134,-10.01447 -4.94128,-15.38092 -0.51317,-5.36654 0.10214,-10.85027 1.8768,-16.04082 0.43986,-1.24629 1.80349,-1.92075 3.0498,-1.48089 1.24631,0.4256 1.9208,1.78883 1.48091,3.03508 -1.56889,4.56005 -2.09672,9.35469 -1.6422,14.03208 0.45454,4.67728 1.89148,9.28127 4.29611,13.44549 2.4193,4.1788 5.65975,7.72709 9.50129,10.45436 3.81227,2.74184 8.24035,4.6627 12.96167,5.58637 z m -17.24309,4.54535 c 1.21698,0.48414 1.81812,1.87683 1.31961,3.10853 -0.49849,1.21691 -1.89148,1.81807 -3.12311,1.31957 -3.90021,-1.59824 -7.50719,-3.82691 -10.64498,-6.58346 -3.13778,-2.74185 -5.83568,-5.99697 -7.96172,-9.64793 -2.1114,-3.66564 -3.59231,-7.63919 -4.38408,-11.72999 -0.80642,-4.07611 -0.93835,-8.31364 -0.36677,-12.50703 0.17609,-1.30501 1.37829,-2.2141 2.68326,-2.03812 1.30495,0.17556 2.2287,1.37821 2.05273,2.68322 -0.49848,3.65094 -0.39591,7.36052 0.3224,10.95284 0.68916,3.57764 1.9941,7.05272 3.84157,10.24911 1.83282,3.19639 4.19346,6.05561 6.95002,8.44558 2.74189,2.38998 5.89431,4.3401 9.31068,5.74768 z m -16.04078,3.84163 c 1.11437,0.70332 1.46626,2.17003 0.77705,3.28439 -0.68917,1.12902 -2.17003,1.46621 -3.26972,0.77673 -2.68326,-1.65688 -5.13188,-3.63636 -7.30192,-5.86506 -2.15539,-2.24336 -4.06153,-4.75071 -5.63038,-7.46317 -1.5689,-2.72729 -2.80057,-5.61577 -3.65098,-8.60692 -0.83578,-2.97646 -1.33429,-6.0703 -1.42228,-9.22274 -0.0436,-1.3196 0.98241,-2.41924 2.302,-2.46329 1.30498,-0.0426 2.41935,0.99697 2.44867,2.31667 0.10214,2.7126 0.52786,5.4252 1.27562,8.06435 0.74779,2.62461 1.81816,5.16121 3.18177,7.52193 1.37829,2.37529 3.03513,4.57473 4.9266,6.52483 1.90611,1.96471 4.04683,3.69491 6.36351,5.13184 z m 0,0"
       id="path4077" />
  </g>
</svg>
