<?xml version="1.0" encoding="UTF-8" standalone="no"?>
<svg
   xmlns:dc="http://purl.org/dc/elements/1.1/"
   xmlns:cc="http://creativecommons.org/ns#"
   xmlns:rdf="http://www.w3.org/1999/02/22-rdf-syntax-ns#"
   xmlns:svg="http://www.w3.org/2000/svg"
   xmlns="http://www.w3.org/2000/svg"
   xmlns:sodipodi="http://sodipodi.sourceforge.net/DTD/sodipodi-0.dtd"
   xmlns:inkscape="http://www.inkscape.org/namespaces/inkscape"
   width="576"
   height="576"
   viewBox="0 0 152.39999 152.39999"
   version="1.1"
   id="svg921"
   sodipodi:docname="snet512_512.svg"
   inkscape:version="1.0.1 (3bc2e813f5, 2020-09-07)"
   inkscape:export-filename="/home/rtn/Documents/10 gimp hints/snet512_512.png"
   inkscape:export-xdpi="96"
   inkscape:export-ydpi="96">
  <defs
     id="defs915">
    <filter
       style="color-interpolation-filters:sRGB"
       inkscape:label="Drop Shadow"
       id="filter1895">
      <feFlood
         flood-opacity="0.498039"
         flood-color="rgb(0,0,0)"
         result="flood"
         id="feFlood1885" />
      <feComposite
         in="flood"
         in2="SourceGraphic"
         operator="in"
         result="composite1"
         id="feComposite1887" />
      <feGaussianBlur
         in="composite1"
         stdDeviation="0.5"
         result="blur"
         id="feGaussianBlur1889" />
      <feOffset
         dx="1.4"
         dy="0.4"
         result="offset"
         id="feOffset1891" />
      <feComposite
         in="SourceGraphic"
         in2="offset"
         operator="over"
         result="composite2"
         id="feComposite1893" />
    </filter>
    <filter
       style="color-interpolation-filters:sRGB"
       inkscape:label="Drop Shadow"
       id="filter1907">
      <feFlood
         flood-opacity="0.498039"
         flood-color="rgb(0,0,0)"
         result="flood"
         id="feFlood1897" />
      <feComposite
         in="flood"
         in2="SourceGraphic"
         operator="in"
         result="composite1"
         id="feComposite1899" />
      <feGaussianBlur
         in="composite1"
         stdDeviation="0.5"
         result="blur"
         id="feGaussianBlur1901" />
      <feOffset
         dx="1.4"
         dy="0.4"
         result="offset"
         id="feOffset1903" />
      <feComposite
         in="SourceGraphic"
         in2="offset"
         operator="over"
         result="composite2"
         id="feComposite1905" />
    </filter>
  </defs>
  <sodipodi:namedview
     id="base"
     pagecolor="#ffffff"
     bordercolor="#666666"
     borderopacity="1.0"
     inkscape:pageopacity="0.0"
     inkscape:pageshadow="2"
     inkscape:zoom="1.0804381"
     inkscape:cx="377.34564"
     inkscape:cy="304.59849"
     inkscape:document-units="px"
     inkscape:current-layer="layer2"
     showgrid="false"
     units="px"
     inkscape:window-width="1528"
     inkscape:window-height="836"
     inkscape:window-x="72"
     inkscape:window-y="27"
     inkscape:window-maximized="1"
     inkscape:showpageshadow="true"
     showguides="true"
     inkscape:lockguides="false"
     inkscape:guide-bbox="true"
     inkscape:pagecheckerboard="true"
     inkscape:snap-nodes="true"
     inkscape:object-nodes="false"
     inkscape:document-rotation="0">
    <sodipodi:guide
       position="-15.182883,125.871"
       orientation="1,0"
       id="guide834"
       inkscape:locked="false" />
  </sodipodi:namedview>
  <metadata
     id="metadata918">
    <rdf:RDF>
      <cc:Work
         rdf:about="">
        <dc:format>image/svg+xml</dc:format>
        <dc:type
           rdf:resource="http://purl.org/dc/dcmitype/StillImage" />
        <dc:title></dc:title>
      </cc:Work>
    </rdf:RDF>
  </metadata>
  <g
     inkscape:groupmode="layer"
     id="layer2"
     inkscape:label="back"
     style="display:inline;opacity:0"
     transform="translate(0,16.933332)">
    <rect
       style="display:inline;opacity:1;fill:#ffffff;fill-opacity:1;stroke-width:1.54236925;stroke-miterlimit:4;stroke-dasharray:none"
       id="rect842"
       width="152.39999"
       height="152.39999"
       x="-2.8421709e-14"
       y="-16.933334" />
  </g>
  <g
     inkscape:label="snetsun"
     inkscape:groupmode="layer"
     id="layer1"
     transform="translate(0,-144.60003)"
     style="display:inline">
    <path
       inkscape:connector-curvature="0"
       style="fill:#eb1923;fill-opacity:1;fill-rule:evenodd;stroke:none;stroke-width:2.19501066;filter:url(#filter1907)"
       d="m 67.314288,214.54242 c 7.553921,0.0249 13.667355,6.1649 13.641637,13.7188 -0.02546,7.55392 -6.164885,13.65877 -13.718816,13.64166 -7.545353,-0.0249 -13.658787,-6.16489 -13.641646,-13.71887 0.02551,-7.55385 6.164886,-13.65877 13.718825,-13.64159 z m 0,0"
       id="path4075"
       transform="matrix(1.7100589,0,0,1.7100589,-40.058713,-168.30926)" />
    <path
       inkscape:connector-curvature="0"
       style="fill:#eb1923;fill-opacity:1;fill-rule:nonzero;stroke:none;stroke-width:2.19501066;filter:url(#filter1895)"
       d="m 52.583697,215.40841 c -0.505916,0.57429 -1.389022,0.63446 -1.9635,0.12879 -0.583009,-0.50586 -0.643078,-1.38902 -0.137197,-1.97209 2.117852,-2.41795 4.707263,-4.33 7.571074,-5.63327 2.863812,-1.30328 6.010553,-1.99779 9.225918,-1.99779 3.21534,0 6.362076,0.69451 9.234479,1.99779 2.855225,1.30327 5.444655,3.21532 7.57107,5.65045 0.49733,0.57429 0.437297,1.45758 -0.137189,1.9635 -0.574486,0.51457 -1.466204,0.45421 -1.963535,-0.1288 -1.852037,-2.11786 -4.11564,-3.78987 -6.636455,-4.93877 -2.503698,-1.14038 -5.256022,-1.74915 -8.068377,-1.74915 -2.82094,0 -5.564702,0.60852 -8.068399,1.74915 -2.512257,1.14038 -4.775861,2.81231 -6.627901,4.93019 z m 2.743762,-10.05762 c -0.608767,0.47163 -1.483342,0.36026 -1.954919,-0.24888 -0.471572,-0.60852 -0.360135,-1.48335 0.248633,-1.95492 1.954921,-1.51762 4.132785,-2.68377 6.447847,-3.48119 2.297888,-0.78883 4.741571,-1.20036 7.210959,-1.20036 2.469387,0 4.904466,0.41128 7.21952,1.20036 2.306471,0.78884 4.48435,1.96357 6.430707,3.48119 0.617355,0.47164 0.728811,1.34615 0.257213,1.95492 -0.471571,0.60852 -1.346152,0.7202 -1.963494,0.24888 -1.697712,-1.32045 -3.609768,-2.34081 -5.624713,-3.03525 -2.01496,-0.68599 -4.149936,-1.04612 -6.31922,-1.04612 -2.169309,0 -4.304285,0.36026 -6.319243,1.04612 -2.014951,0.69444 -3.927002,1.7148 -5.63329,3.03525 z m 2.735208,-9.24308 c -0.677385,0.36026 -1.526238,0.10328 -1.886354,-0.5743 -0.360134,-0.67734 -0.10297,-1.52621 0.583072,-1.88629 1.611947,-0.87457 3.326802,-1.5348 5.093107,-1.97208 1.774859,-0.44613 3.592615,-0.6774 5.427512,-0.6774 1.826317,0 3.652628,0.23146 5.418933,0.6774 1.75772,0.43741 3.463987,1.09751 5.093112,1.9635 0.677347,0.36026 0.934587,1.20895 0.574473,1.88635 -0.368711,0.68592 -1.208964,0.93455 -1.886338,0.57429 -1.406172,-0.74596 -2.90669,-1.32897 -4.45862,-1.71486 -1.543355,-0.38577 -3.138187,-0.58301 -4.741553,-0.58301 -1.611973,0 -3.206779,0.19724 -4.750159,0.58301 -1.551936,0.39448 -3.061008,0.9689 -4.467173,1.72345 z m 27.651971,25.79996 c -0.240049,-0.72878 0.145729,-1.52621 0.874582,-1.77484 0.737393,-0.24887 1.534791,0.1456 1.774868,0.87457 1.04607,3.04385 1.397603,6.23347 1.088939,9.37164 -0.300082,3.12964 -1.268997,6.20777 -2.872389,8.99445 v -0.007 c -1.62053,2.79521 -3.798381,5.17024 -6.353525,6.99655 -2.563711,1.83495 -5.521811,3.12106 -8.668577,3.73841 -0.763095,0.14559 -1.500486,-0.34284 -1.646263,-1.1061 -0.145721,-0.75449 0.342962,-1.49194 1.106092,-1.63765 2.769487,-0.54008 5.350335,-1.672 7.588219,-3.26685 2.237884,-1.60336 4.149954,-3.6783 5.547558,-6.11343 v -0.007 c 1.414753,-2.43506 2.25502,-5.11877 2.529397,-7.854 0.265809,-2.73516 -0.0516,-5.53895 -0.968901,-8.20554 z m 7.339576,7.39961 c -0.102929,-0.76314 0.437283,-1.46623 1.200409,-1.56908 0.763084,-0.10265 1.46619,0.43741 1.569078,1.20037 0.334369,2.45224 0.257227,4.92166 -0.205707,7.30527 -0.471571,2.3922 -1.33757,4.71583 -2.572253,6.85941 -1.243278,2.14357 -2.81237,4.04708 -4.647257,5.65045 -1.843455,1.60338 -3.952733,2.90665 -6.233486,3.84126 -0.720243,0.29182 -1.534792,-0.0498 -1.826332,-0.77165 -0.2915,-0.71169 0.0516,-1.52622 0.771693,-1.81779 2.006376,-0.81452 3.841277,-1.95491 5.44467,-3.35252 1.611947,-1.40618 2.9924,-3.07818 4.072743,-4.94735 1.080371,-1.86917 1.826346,-3.90131 2.246466,-5.99342 0.402997,-2.1007 0.480153,-4.26137 0.180003,-6.40495 z m 6.636483,7.00519 c 0.03422,-0.77172 0.677363,-1.38049 1.440473,-1.35473 0.77168,0.0249 1.37189,0.66875 1.35475,1.44047 -0.0597,1.84341 -0.34296,3.66119 -0.84029,5.40176 -0.49733,1.74915 -1.21754,3.43827 -2.134991,5.0331 -0.91745,1.58619 -2.02354,3.05242 -3.292523,4.36429 -1.268996,1.31186 -2.692304,2.46084 -4.244246,3.42974 -0.660238,0.40319 -1.526237,0.20595 -1.92922,-0.45422 -0.411593,-0.65164 -0.205694,-1.51763 0.454406,-1.92062 1.363303,-0.84888 2.606567,-1.86066 3.712657,-3.00097 1.106076,-1.14039 2.074977,-2.42655 2.880958,-3.81557 0.797398,-1.3805 1.423307,-2.86384 1.860605,-4.39864 0.445866,-1.54332 0.694524,-3.13816 0.737393,-4.72436 z m -36.166228,11.03504 c 0.754534,0.15431 1.243253,0.88317 1.106062,1.64624 -0.154307,0.75455 -0.891723,1.25188 -1.646256,1.09752 -3.155327,-0.61723 -6.104872,-1.90346 -8.668562,-3.73835 -2.555147,-1.82637 -4.732992,-4.2014 -6.336378,-6.98803 -1.611972,-2.78668 -2.58085,-5.85621 -2.88954,-8.99438 -0.30009,-3.13822 0.05973,-6.34497 1.097506,-9.38027 0.257222,-0.7288 1.054637,-1.12321 1.783448,-0.86599 0.728811,0.24888 1.123234,1.04606 0.866001,1.77484 -0.917452,2.6666 -1.22611,5.47039 -0.960322,8.20561 0.265807,2.73516 1.106092,5.42746 2.512258,7.86259 1.414751,2.44366 3.309684,4.51861 5.556123,6.11345 2.22932,1.60336 4.81875,2.72663 7.57966,3.26677 z m -10.083331,2.65801 c 0.711662,0.28311 1.063191,1.09752 0.771674,1.81779 -0.291505,0.71162 -1.106086,1.06316 -1.826317,0.77165 -2.280746,-0.93461 -4.390018,-2.23788 -6.224915,-3.84984 -1.834898,-1.60337 -3.412561,-3.50688 -4.65582,-5.64187 -1.234691,-2.14358 -2.100691,-4.46721 -2.563701,-6.85941 -0.471572,-2.38361 -0.548725,-4.86161 -0.214475,-7.3138 0.10297,-0.76314 0.805988,-1.29475 1.569101,-1.19184 0.763101,0.10266 1.303289,0.80594 1.200389,1.56908 -0.291504,2.13498 -0.231523,4.30425 0.188529,6.40495 0.403005,2.09211 1.166099,4.12425 2.246456,5.99342 1.071785,1.86917 2.452227,3.54117 4.0642,4.93877 1.603386,1.3976 3.446844,2.53798 5.444655,3.3611 z m -9.380251,2.24649 c 0.651657,0.41128 0.857434,1.26898 0.454399,1.92063 -0.403004,0.66022 -1.268974,0.8574 -1.912051,0.45421 -1.569102,-0.9689 -3.000996,-2.12645 -4.269976,-3.42974 -1.260419,-1.31186 -2.375085,-2.7781 -3.292512,-4.36428 -0.917452,-1.59485 -1.637701,-3.28396 -2.135,-5.03311 -0.488745,-1.74056 -0.780261,-3.54976 -0.831712,-5.39323 -0.02551,-0.77167 0.574485,-1.41471 1.346153,-1.44047 0.763119,-0.0249 1.414776,0.583 1.431918,1.35473 0.05973,1.58626 0.308678,3.17252 0.745952,4.71583 0.437288,1.53481 1.063217,3.01815 1.860619,4.39864 0.80599,1.38901 1.774867,2.67519 2.880954,3.81556 1.114648,1.14891 2.366486,2.16069 3.721226,3.00097 z m 0,0"
       id="path4077"
       transform="matrix(1.7100589,0,0,1.7100589,-40.058713,-168.30926)" />
  </g>
</svg>
